<?xml version="1.0" encoding="UTF-8" standalone="no"?>
<!DOCTYPE svg PUBLIC "-//W3C//DTD SVG 1.1//EN" "http://www.w3.org/Graphics/SVG/1.1/DTD/svg11.dtd">
<svg xmlns="http://www.w3.org/2000/svg" version="1.1" viewBox="0 0 500 438" width="500.0pt" height="438.0pt">
<path d="M 0.00 0.00 L 500.00 0.00 L 500.00 316.20 C 499.03 311.17 498.98 306.03 498.04 300.99 C 496.30 289.87 490.68 279.21 481.58 272.39 C 474.78 267.09 466.68 263.90 458.15 262.74 C 444.92 260.90 430.65 261.63 418.44 267.48 C 408.38 272.37 399.44 280.15 394.13 290.09 C 393.22 291.58 392.50 293.51 391.14 294.64 C 389.14 295.18 388.88 293.23 388.07 291.92 C 383.37 281.03 374.86 271.93 364.10 266.87 C 353.28 261.26 339.76 260.91 327.98 263.05 C 315.47 265.21 303.71 271.85 295.84 281.88 C 292.70 285.69 291.20 290.34 288.34 294.28 C 287.40 284.82 288.10 275.15 287.94 265.64 C 278.16 265.53 268.38 265.60 258.61 265.61 C 258.57 323.07 258.60 380.54 258.59 438.00 L 0.00 438.00 L 0.00 0.00 Z" fill="#ffffff" />
<path d="M 177.30 9.17 C 174.95 17.22 170.84 24.35 166.30 31.33 C 159.49 41.91 152.16 51.87 147.68 63.76 C 145.21 70.65 143.71 77.95 145.72 85.17 C 147.09 90.18 150.22 95.62 154.90 98.17 C 159.62 100.70 165.18 99.53 169.13 96.16 C 173.06 92.79 175.76 87.60 178.06 83.04 C 184.41 70.06 190.73 57.06 197.08 44.07 C 201.24 35.59 205.16 27.06 210.11 18.99 C 227.27 25.48 243.41 33.95 258.82 43.88 C 251.19 59.77 238.60 71.30 230.62 86.62 C 227.97 91.84 225.83 97.41 224.63 103.15 C 223.86 107.30 223.59 112.32 225.87 116.07 C 228.15 119.86 232.78 121.38 237.01 121.21 C 241.80 120.90 246.10 117.64 249.46 114.44 C 265.28 98.86 272.29 76.12 287.73 61.19 C 298.26 67.90 308.91 74.11 318.91 81.66 C 313.62 92.61 304.72 100.44 298.91 110.94 C 295.48 117.47 293.50 126.29 296.69 133.25 C 298.76 137.98 302.96 141.01 307.99 141.96 C 317.41 143.66 327.03 139.22 332.70 131.68 C 339.53 122.81 341.35 113.06 344.01 102.53 C 358.09 116.12 371.02 131.33 378.10 149.82 C 368.55 162.07 356.37 172.04 342.00 178.08 C 333.56 181.73 323.79 183.45 315.82 187.80 C 309.80 191.08 304.49 197.01 303.51 203.99 C 302.79 208.99 305.19 213.91 309.34 216.69 C 314.32 220.09 321.11 220.93 327.00 220.78 C 344.70 219.86 361.31 214.09 376.63 205.34 C 373.15 213.11 368.40 220.36 362.65 226.63 C 341.92 249.51 306.38 257.06 278.02 245.04 C 271.11 242.20 263.63 238.28 256.00 238.50 C 252.75 238.47 250.24 239.94 247.52 241.48 C 241.90 244.14 239.20 251.21 238.40 256.98 C 236.82 267.71 242.34 278.67 245.29 288.82 C 248.88 300.29 248.13 312.68 243.75 323.83 C 237.63 339.49 225.45 352.82 210.75 360.88 C 211.37 352.72 211.69 343.93 210.11 335.86 C 208.79 329.81 205.86 322.99 200.30 319.71 C 195.57 316.95 189.77 318.22 185.95 321.93 C 180.54 327.07 178.39 334.91 175.60 341.61 C 171.67 351.73 166.06 361.11 159.20 369.51 C 138.49 366.39 119.30 357.46 102.72 344.81 C 119.36 331.07 136.28 317.67 153.03 304.06 C 165.13 294.13 177.59 284.73 186.85 271.92 C 192.05 264.59 196.46 256.13 196.97 247.00 C 197.18 242.38 195.98 237.74 192.33 234.68 C 187.58 230.84 180.78 230.26 175.14 232.29 C 168.68 234.52 162.79 239.23 157.83 243.83 C 147.67 253.17 139.79 264.53 129.11 273.14 C 111.47 288.59 92.37 302.43 72.17 314.34 C 62.16 301.49 52.79 287.88 44.97 273.57 C 58.89 270.51 72.99 270.56 86.88 267.62 C 96.65 265.31 106.08 261.58 112.89 253.91 C 118.78 247.36 121.40 237.41 117.89 229.10 C 115.26 223.05 109.41 219.41 103.02 218.51 C 93.79 217.24 84.75 220.15 76.88 224.83 C 62.16 233.39 50.15 247.63 36.21 257.82 C 28.47 242.58 20.30 227.22 14.55 211.09 C 39.77 202.57 64.94 193.86 90.13 185.24 C 100.63 181.55 111.93 177.81 120.52 170.53 C 127.37 164.81 132.57 156.08 132.65 147.00 C 132.69 140.99 130.08 135.36 125.52 131.47 C 118.91 125.81 109.49 123.83 101.00 124.85 C 91.60 125.92 83.29 129.79 74.88 133.85 C 51.22 145.66 27.70 157.76 4.02 169.52 C 0.58 145.47 1.14 120.91 6.07 97.10 C 11.32 95.13 16.23 93.04 21.87 92.39 C 30.77 91.34 39.61 91.03 48.50 89.32 C 51.92 88.62 55.70 87.62 58.61 85.63 C 61.68 83.55 63.08 79.25 61.13 75.95 C 59.17 72.72 55.18 70.65 51.78 69.29 C 40.03 64.86 27.42 63.09 14.95 64.90 C 18.44 52.74 21.80 40.76 22.00 28.00 C 22.23 19.62 20.63 11.87 17.06 4.30 C 22.25 10.08 30.71 11.09 38.00 11.84 C 51.51 12.74 65.21 11.71 78.50 9.15 C 78.68 16.76 79.20 24.90 81.64 32.17 C 82.84 35.48 85.01 39.73 88.99 40.01 C 93.64 40.05 96.80 36.73 99.01 33.00 C 104.15 24.24 105.81 13.43 109.98 3.93 C 132.66 1.90 155.12 4.40 177.30 9.17 Z" fill="#3e670e" />
<path d="M 364.10 266.87 C 374.86 271.93 383.37 281.03 388.07 291.92 C 388.88 293.23 389.14 295.18 391.14 294.64 C 392.50 293.51 393.22 291.58 394.13 290.09 C 399.44 280.15 408.38 272.37 418.44 267.48 C 430.65 261.63 444.92 260.90 458.15 262.74 C 466.68 263.90 474.78 267.09 481.58 272.39 C 490.68 279.21 496.30 289.87 498.04 300.99 C 498.98 306.03 499.03 311.17 500.00 316.20 L 500.00 438.00 L 470.30 438.00 C 470.31 401.67 470.31 365.33 470.30 329.00 C 470.16 319.55 470.06 309.28 467.60 300.12 C 465.80 293.74 462.51 287.81 456.79 284.19 C 450.73 279.91 442.17 279.26 435.00 279.47 C 426.45 279.71 418.22 281.92 411.77 287.76 C 403.71 294.62 399.32 303.93 396.73 314.01 C 394.43 323.54 393.79 333.22 393.76 343.00 C 393.77 374.67 393.76 406.33 393.76 438.00 L 364.44 438.00 C 364.45 401.33 364.45 364.67 364.44 328.00 C 364.26 316.89 364.30 306.59 359.77 296.20 C 356.40 288.74 350.11 282.19 341.88 280.41 C 334.70 278.83 326.99 279.28 319.85 280.84 C 308.02 283.39 298.67 293.22 294.02 304.03 C 288.91 315.64 288.21 327.50 287.91 340.00 C 287.89 372.67 287.91 405.33 287.90 438.00 L 258.59 438.00 C 258.60 380.54 258.57 323.07 258.61 265.61 C 268.38 265.60 278.16 265.53 287.94 265.64 C 288.10 275.15 287.40 284.82 288.34 294.28 C 291.20 290.34 292.70 285.69 295.84 281.88 C 303.71 271.85 315.47 265.21 327.98 263.05 C 339.76 260.91 353.28 261.26 364.10 266.87 Z" fill="#3e670e" />
<path d="M 341.88 280.41 C 350.11 282.19 356.40 288.74 359.77 296.20 C 364.30 306.59 364.26 316.89 364.44 328.00 C 364.45 364.67 364.45 401.33 364.44 438.00 L 287.90 438.00 C 287.91 405.33 287.89 372.67 287.91 340.00 C 288.21 327.50 288.91 315.64 294.02 304.03 C 298.67 293.22 308.02 283.39 319.85 280.84 C 326.99 279.28 334.70 278.83 341.88 280.41 Z" fill="#ffffff" />
<path d="M 435.00 279.47 C 442.17 279.26 450.73 279.91 456.79 284.19 C 462.51 287.81 465.80 293.74 467.60 300.12 C 470.06 309.28 470.16 319.55 470.30 329.00 C 470.31 365.33 470.31 401.67 470.30 438.00 L 393.76 438.00 C 393.76 406.33 393.77 374.67 393.76 343.00 C 393.79 333.22 394.43 323.54 396.73 314.01 C 399.32 303.93 403.71 294.62 411.77 287.76 C 418.22 281.92 426.45 279.71 435.00 279.47 Z" fill="#ffffff" />
</svg>